<svg width="80" height="80" viewBox="0 0 80 80" fill="none" xmlns="http://www.w3.org/2000/svg">
<path d="M9.37769 51.5556L5.15546 69.7778C5.00981 70.4439 5.01481 71.1342 5.17008 71.7981C5.32535 72.4621 5.62698 73.0829 6.05294 73.6154C6.47889 74.1478 7.01841 74.5784 7.63208 74.8756C8.24575 75.1728 8.91806 75.3292 9.59991 75.3334C9.91762 75.3654 10.2378 75.3654 10.5555 75.3334L28.8888 71.1111L64.0888 36.0445L44.4444 16.4445L9.37769 51.5556Z" fill="#DCE6F2"/>
<path d="M75.1555 18.4889L62.0444 5.37778C61.1824 4.52015 60.0159 4.0387 58.7999 4.0387C57.584 4.0387 56.4175 4.52015 55.5555 5.37778L48.2666 12.6667L67.8888 32.2889L75.1777 25C75.6043 24.5713 75.9421 24.0627 76.1719 23.5033C76.4016 22.9438 76.5189 22.3446 76.5168 21.7398C76.5147 21.1351 76.3934 20.5367 76.1598 19.9788C75.9263 19.421 75.585 18.9147 75.1555 18.4889V18.4889Z" fill="#DCE6F2"/>
</svg>
