<svg width="80" height="80" viewBox="0 0 80 80" fill="none" xmlns="http://www.w3.org/2000/svg">
<path d="M8.99559 65.8756C7.19337 64.6356 5.57115 56.8245 6.91559 56.0889C8.55559 55.1956 8.44004 57.9445 11.9267 61.3378C15.4134 64.7333 26.3045 63.3667 29.0556 64.2845C32.0845 65.2956 14.8667 69.9134 8.99559 65.8756Z" fill="#DCE6F2"/>
<path d="M11.9267 61.34C8.88892 48.8888 10.3445 42.0422 12.0734 37.4688C15.1111 29.4222 37.1089 11.4866 52.8889 5.85995C57.0623 4.37106 70.2667 2.22217 77.7778 2.22217C79.0867 7.40439 75.1689 17.1488 74.1778 18.9288C71.9356 22.9511 66.2578 28.4244 54.9645 39.9999C54.4045 40.5733 43.5889 38.9777 43.0178 39.5755C42.3889 40.2333 52.0045 43.0844 51.3623 43.7733C49.7223 45.5288 48.04 47.3822 46.3223 49.3444C45.94 49.7799 27.8534 47.2933 27.4689 47.7399C26.9534 48.3399 44.1378 51.8777 43.6156 52.4955C42.1823 54.1955 40.7289 55.9711 39.2623 57.8222C35.4289 62.6622 11.9267 61.34 11.9267 61.34Z" fill="#DCE6F2"/>
<path d="M42.5555 28.4155C46.0844 30.5622 54.4022 32.7333 61.0355 33.7977C65.2533 29.4933 68.3666 26.2911 70.5955 23.7333C65.5755 22.6444 57.8355 20.8444 53.9577 19.0955L52.1444 18.2L41.3177 27.4666L42.5555 28.4155Z" fill="#DCE6F2"/>
<path d="M77.9734 3.36439C77.9341 2.97967 77.8687 2.59805 77.7778 2.22217C76.9378 2.22217 76.0178 2.25328 75.0556 2.30217C67.4156 2.69772 56.5956 4.53772 52.8889 5.85995C52.1222 6.13328 51.3289 6.45995 50.5356 6.78884C49.4734 7.22884 48.3933 7.71328 47.2934 8.24217C48.0845 11.5333 49.7956 15.2288 51.3089 17.1599C47.5943 20.049 44.0086 23.1001 40.5622 26.3044C27.9956 37.9666 18.2933 50.4644 11.6622 60.1755C11.7511 60.5622 11.8311 60.9399 11.9289 61.34C11.9289 61.34 12.4156 61.3666 13.2378 61.3977C16.5311 56.3133 25.9111 43.0888 42.5578 28.4177C46.2441 25.1738 50.0466 22.0644 53.9578 19.0955C57.8356 20.8444 65.5756 22.6444 70.5956 23.7333C71.3111 22.9133 71.9422 22.1511 72.4822 21.4488C73.1845 20.5333 73.7467 19.7044 74.1778 18.9288C75.1 17.2711 78.5534 8.71995 77.9734 3.36439Z" fill="#DCE6F2"/>
<path d="M77.7777 2.22225C76.9577 2.22225 76.1088 2.21558 75.2488 2.20447C66.5488 6.36891 58.5622 11.5245 51.3111 17.16C49.7999 15.2267 48.0866 11.5334 47.2955 8.24225C43.8631 9.92007 40.5356 11.8043 37.3311 13.8845C38.0177 18.1311 39.2244 23.6111 40.5644 26.3045C15.1711 49.8689 1.41772 76.9 1.22883 77.28C1.09681 77.5438 1.07497 77.8492 1.16812 78.129C1.26126 78.4088 1.46176 78.6402 1.7255 78.7722C1.98924 78.9043 2.29463 78.9261 2.57447 78.833C2.85432 78.7398 3.0857 78.5393 3.21772 78.2756C3.48217 77.7467 30.2044 25.2022 78.0155 3.34225C77.9488 2.96636 77.8695 2.59282 77.7777 2.22225Z" fill="#DCE6F2"/>
</svg>
