<svg width="60" height="60" viewBox="0 0 60 60" fill="none" xmlns="http://www.w3.org/2000/svg">
<path d="M30 15C30.663 15 31.2989 15.2634 31.7678 15.7322C32.2366 16.2011 32.5 16.837 32.5 17.5V27.5H42.5C43.163 27.5 43.7989 27.7634 44.2678 28.2322C44.7366 28.7011 45 29.337 45 30C45 30.663 44.7366 31.2989 44.2678 31.7678C43.7989 32.2366 43.163 32.5 42.5 32.5H32.5V42.5C32.5 43.163 32.2366 43.7989 31.7678 44.2678C31.2989 44.7366 30.663 45 30 45C29.337 45 28.7011 44.7366 28.2322 44.2678C27.7634 43.7989 27.5 43.163 27.5 42.5V32.5H17.5C16.837 32.5 16.2011 32.2366 15.7322 31.7678C15.2634 31.2989 15 30.663 15 30C15 29.337 15.2634 28.7011 15.7322 28.2322C16.2011 27.7634 16.837 27.5 17.5 27.5H27.5V17.5C27.5 16.837 27.7634 16.2011 28.2322 15.7322C28.7011 15.2634 29.337 15 30 15V15Z" fill="#394A59"/>
<path d="M0 30C-5.87054e-08 26.0603 0.775973 22.1593 2.28361 18.5195C3.79125 14.8797 6.00104 11.5726 8.7868 8.7868C11.5726 6.00104 14.8797 3.79126 18.5195 2.28361C22.1593 0.775973 26.0603 0 30 0C33.9397 0 37.8407 0.775973 41.4805 2.28361C45.1203 3.79126 48.4274 6.00104 51.2132 8.7868C53.999 11.5726 56.2087 14.8797 57.7164 18.5195C59.224 22.1593 60 26.0603 60 30C60 37.9565 56.8393 45.5871 51.2132 51.2132C45.5871 56.8393 37.9565 60 30 60C22.0435 60 14.4129 56.8393 8.7868 51.2132C3.1607 45.5871 1.18561e-07 37.9565 0 30V30ZM30 5C23.3696 5 17.0107 7.63392 12.3223 12.3223C7.63392 17.0107 5 23.3696 5 30C5 36.6304 7.63392 42.9893 12.3223 47.6777C17.0107 52.3661 23.3696 55 30 55C36.6304 55 42.9893 52.3661 47.6777 47.6777C52.3661 42.9893 55 36.6304 55 30C55 23.3696 52.3661 17.0107 47.6777 12.3223C42.9893 7.63392 36.6304 5 30 5V5Z" fill="#394A59"/>
</svg>
