<svg width="80" height="80" viewBox="0 0 80 80" fill="none" xmlns="http://www.w3.org/2000/svg">
<path d="M60.0001 66.6666H13.3334V19.9999H43.3334V13.3333H13.3334C9.66675 13.3333 6.66675 16.3333 6.66675 19.9999V66.6666C6.66675 70.3333 9.66675 73.3333 13.3334 73.3333H60.0001C63.6667 73.3333 66.6667 70.3333 66.6667 66.6666V36.6666H60.0001V66.6666ZM34.0334 56.0999L27.5001 48.2333L18.3334 59.9999H55.0001L43.2001 44.2999L34.0334 56.0999ZM66.6667 13.3333V3.33325H60.0001V13.3333H50.0001C50.0334 13.3666 50.0001 19.9999 50.0001 19.9999H60.0001V29.9666C60.0334 29.9999 66.6667 29.9666 66.6667 29.9666V19.9999H76.6667V13.3333H66.6667Z" fill="#394A59"/>
</svg>
