<svg width="80" height="80" viewBox="0 0 80 80" fill="none" xmlns="http://www.w3.org/2000/svg">
<path d="M60.3112 75.5556H19.689C18.8339 75.5354 17.9911 75.3469 17.2088 75.0009C16.4266 74.6549 15.7202 74.1582 15.13 73.539C14.5397 72.9199 14.0773 72.1906 13.769 71.3927C13.4608 70.5948 13.3128 69.744 13.3334 68.8889V24.9556H17.7779V68.8889C17.7567 69.1605 17.7894 69.4335 17.874 69.6924C17.9587 69.9513 18.0938 70.1909 18.2714 70.3974C18.449 70.6039 18.6656 70.7733 18.9089 70.8958C19.1522 71.0183 19.4173 71.0915 19.689 71.1111H60.3112C60.5829 71.0915 60.848 71.0183 61.0913 70.8958C61.3346 70.7733 61.5513 70.6039 61.7289 70.3974C61.9065 70.1909 62.0415 69.9513 62.1262 69.6924C62.2109 69.4335 62.2436 69.1605 62.2223 68.8889V24.9556H66.6668V68.8889C66.6875 69.744 66.5394 70.5948 66.2312 71.3927C65.9229 72.1906 65.4605 72.9199 64.8703 73.539C64.2801 74.1582 63.5736 74.6549 62.7914 75.0009C62.0091 75.3469 61.1664 75.5354 60.3112 75.5556V75.5556Z" fill="white"/>
<path d="M68.4 20H11.1111C10.5218 20 9.95654 19.7659 9.53979 19.3491C9.12304 18.9324 8.88892 18.3671 8.88892 17.7778C8.88892 17.1884 9.12304 16.6232 9.53979 16.2064C9.95654 15.7897 10.5218 15.5555 11.1111 15.5555H68.4C68.9894 15.5555 69.5546 15.7897 69.9714 16.2064C70.3881 16.6232 70.6223 17.1884 70.6223 17.7778C70.6223 18.3671 70.3881 18.9324 69.9714 19.3491C69.5546 19.7659 68.9894 20 68.4 20Z" fill="white"/>
<path d="M46.6667 28.8889H51.1112V62.2223H46.6667V28.8889Z" fill="white"/>
<path d="M28.8889 28.8889H33.3334V62.2223H28.8889V28.8889Z" fill="white"/>
<path d="M51.1111 13.0222H46.8889V8.8889H33.1111V13.0222H28.8889V8.8889C28.8875 7.74767 29.3251 6.64963 30.1111 5.82224C30.8972 4.99484 31.9713 4.50152 33.1111 4.44446H46.8889C48.0287 4.50152 49.1029 4.99484 49.8889 5.82224C50.6749 6.64963 51.1126 7.74767 51.1111 8.8889V13.0222Z" fill="white"/>
</svg>
